<svg width="235" height="89" viewBox="0 0 235 89" fill="none" xmlns="http://www.w3.org/2000/svg">
<path fill-rule="evenodd" clip-rule="evenodd" d="M12.3855 29.8424C-1.46139 24.5901 -0.944117 7.75901 1.04537 0C2.1857 11.4033 18.5769 15.1811 27.8451 17.3173L27.8465 17.3176L27.8477 17.3179C28.2805 17.4176 28.6978 17.5138 29.0972 17.607C36.299 19.2874 39.0592 24.0576 42.3489 29.7428L42.349 29.7428L42.3493 29.7433L42.3493 29.7434C43.149 31.1254 43.98 32.5614 44.9136 34.0203C49.6884 41.4809 45.8089 40.2872 44.9136 39.6903C44.0184 39.0935 41.3326 36.1093 35.3641 28.9471C29.3956 21.7849 20.7413 21.4865 17.7571 23.8739C15.3474 25.8017 17.0239 26.1728 22.3153 27.3441C23.5768 27.6234 25.0438 27.9481 26.7098 28.3502C33.6332 30.0214 30.7883 31.434 28.5003 31.9313C19.1895 31.9313 13.8776 30.5387 12.3855 29.8424ZM34.7115 37.3097C32.409 33.9026 33.7375 31.1424 34.4688 29.8424C34.79 33.2147 35.6297 35.1756 36.2438 36.6086C36.8271 37.9696 35.5406 38.5365 34.7115 37.3097ZM35.3641 30.4392C35.9609 33.7219 36.9159 38.6757 40.7357 40.5856C41.432 40.884 44.1278 40.9304 42.5263 38.7951C41.3095 37.1728 39.2201 34.8155 37.4752 32.847L37.4751 32.847C36.6523 31.9186 35.906 31.0768 35.3641 30.4392ZM23.2251 50.8811C22.6282 47.5984 21.6733 42.6446 17.8535 40.7347C17.1571 40.4363 14.4614 40.3899 16.0629 42.5252C17.2797 44.1475 19.3691 46.5048 21.114 48.4733L21.1142 48.4735L21.1149 48.4743C21.9374 49.4022 22.6833 50.2437 23.2251 50.8811ZM46.2037 51.4779C60.0506 56.7302 59.5333 73.5613 57.5438 81.3203C56.4035 69.917 40.0123 66.1392 30.7441 64.003C30.3104 63.9031 29.8922 63.8067 29.492 63.7133C22.2902 62.0329 19.5299 57.2627 16.2402 51.5775L16.2402 51.5775C15.4404 50.1953 14.6093 48.7591 13.6755 47.3C8.90075 39.8394 12.7803 41.0331 13.6755 41.63C14.5708 42.2268 17.2566 45.211 23.2251 52.3732C29.1936 59.5354 37.8478 59.8338 40.8321 57.4464C43.2418 55.5186 41.5653 55.1475 36.2739 53.9762L36.2735 53.9761L36.2721 53.9758L36.2709 53.9755C35.0101 53.6964 33.5441 53.3719 31.8794 52.9701C24.9559 51.2989 27.8009 49.8863 30.0888 49.389C39.3996 49.389 44.7116 50.7816 46.2037 51.4779ZM23.8776 44.0106C26.1802 47.4177 24.8516 50.1779 24.1204 51.4779C23.7992 48.1056 22.9595 46.1447 22.3454 44.7117C21.7621 43.3507 23.0485 42.7838 23.8776 44.0106Z" fill="#153759"/>
<path d="M97.1248 35.9276C97.1248 38.105 96.4111 39.859 94.9837 41.1896C93.5563 42.5203 91.4152 43.1856 88.5604 43.1856H83.4435V54H80.9032V28.6333H88.5604C91.391 28.6333 93.52 29.2986 94.9474 30.6292C96.399 31.9599 97.1248 33.726 97.1248 35.9276ZM88.5604 41.0082C92.5281 41.0082 94.512 39.3146 94.512 35.9276C94.512 34.234 94.0402 32.9518 93.0966 32.0808C92.1531 31.2099 90.641 30.7744 88.5604 30.7744H83.4435V41.0082H88.5604ZM100.226 44.0565C100.226 42.0243 100.625 40.2461 101.423 38.7219C102.246 37.1735 103.371 35.9881 104.798 35.1655C106.25 34.3187 107.883 33.8953 109.698 33.8953C111.585 33.8953 113.206 34.3308 114.56 35.2018C115.939 36.0727 116.931 37.1856 117.536 38.5405V34.1857H120.077V54H117.536V49.6089C116.907 50.9637 115.903 52.0887 114.524 52.9839C113.169 53.8548 111.548 54.2903 109.661 54.2903C107.871 54.2903 106.25 53.8669 104.798 53.0202C103.371 52.1734 102.246 50.9758 101.423 49.4275C100.625 47.8791 100.226 46.0888 100.226 44.0565ZM117.536 44.0928C117.536 42.4961 117.21 41.0929 116.556 39.8832C115.903 38.6735 115.008 37.7421 113.871 37.0889C112.758 36.4356 111.524 36.109 110.169 36.109C108.766 36.109 107.508 36.4235 106.395 37.0526C105.282 37.6816 104.399 38.6009 103.746 39.8106C103.117 40.9961 102.803 42.4114 102.803 44.0565C102.803 45.6775 103.117 47.1049 103.746 48.3388C104.399 49.5484 105.282 50.4799 106.395 51.1331C107.508 51.7621 108.766 52.0766 110.169 52.0766C111.524 52.0766 112.758 51.75 113.871 51.0968C115.008 50.4436 115.903 49.5121 116.556 48.3025C117.21 47.0928 117.536 45.6896 117.536 44.0928ZM132.698 54.2903C130.424 54.2903 128.561 53.7702 127.11 52.7298C125.682 51.6653 124.884 50.2258 124.715 48.4113H127.327C127.448 49.5242 127.969 50.4315 128.888 51.1331C129.831 51.8105 131.09 52.1492 132.662 52.1492C134.041 52.1492 135.118 51.8226 135.892 51.1694C136.69 50.5162 137.089 49.7057 137.089 48.7379C137.089 48.0605 136.872 47.5041 136.436 47.0686C136.001 46.6331 135.444 46.2944 134.767 46.0525C134.114 45.7864 133.219 45.5081 132.081 45.2178C130.606 44.8307 129.408 44.4436 128.489 44.0565C127.569 43.6694 126.783 43.1009 126.13 42.3509C125.501 41.5767 125.186 40.5485 125.186 39.2663C125.186 38.2985 125.477 37.4034 126.057 36.5808C126.638 35.7582 127.461 35.105 128.525 34.6211C129.59 34.1373 130.799 33.8953 132.154 33.8953C134.283 33.8953 136.001 34.4397 137.307 35.5284C138.614 36.5929 139.315 38.0687 139.412 39.9558H136.872C136.799 38.7945 136.339 37.863 135.493 37.1614C134.67 36.4356 133.533 36.0727 132.081 36.0727C130.799 36.0727 129.759 36.3752 128.961 36.98C128.162 37.5848 127.763 38.3348 127.763 39.23C127.763 40.0042 127.993 40.6453 128.452 41.1533C128.936 41.6372 129.529 42.0243 130.231 42.3146C130.932 42.5807 131.876 42.8832 133.061 43.2219C134.489 43.609 135.626 43.984 136.473 44.3469C137.319 44.7098 138.045 45.242 138.65 45.9436C139.255 46.6452 139.569 47.5767 139.593 48.7379C139.593 49.8025 139.303 50.7581 138.723 51.6049C138.142 52.4274 137.331 53.0807 136.291 53.5645C135.251 54.0484 134.053 54.2903 132.698 54.2903ZM151.198 54.2903C148.924 54.2903 147.061 53.7702 145.609 52.7298C144.182 51.6653 143.383 50.2258 143.214 48.4113H145.827C145.948 49.5242 146.468 50.4315 147.387 51.1331C148.331 51.8105 149.589 52.1492 151.161 52.1492C152.541 52.1492 153.617 51.8226 154.391 51.1694C155.19 50.5162 155.589 49.7057 155.589 48.7379C155.589 48.0605 155.371 47.5041 154.936 47.0686C154.5 46.6331 153.944 46.2944 153.266 46.0525C152.613 45.7864 151.718 45.5081 150.581 45.2178C149.105 44.8307 147.907 44.4436 146.988 44.0565C146.069 43.6694 145.283 43.1009 144.629 42.3509C144 41.5767 143.686 40.5485 143.686 39.2663C143.686 38.2985 143.976 37.4034 144.557 36.5808C145.137 35.7582 145.96 35.105 147.024 34.6211C148.089 34.1373 149.299 33.8953 150.653 33.8953C152.782 33.8953 154.5 34.4397 155.807 35.5284C157.113 36.5929 157.815 38.0687 157.911 39.9558H155.371C155.299 38.7945 154.839 37.863 153.992 37.1614C153.17 36.4356 152.032 36.0727 150.581 36.0727C149.299 36.0727 148.258 36.3752 147.46 36.98C146.662 37.5848 146.262 38.3348 146.262 39.23C146.262 40.0042 146.492 40.6453 146.952 41.1533C147.436 41.6372 148.028 42.0243 148.73 42.3146C149.432 42.5807 150.375 42.8832 151.561 43.2219C152.988 43.609 154.125 43.984 154.972 44.3469C155.819 44.7098 156.545 45.242 157.149 45.9436C157.754 46.6452 158.069 47.5767 158.093 48.7379C158.093 49.8025 157.803 50.7581 157.222 51.6049C156.641 52.4274 155.831 53.0807 154.79 53.5645C153.75 54.0484 152.553 54.2903 151.198 54.2903ZM197.341 54.254C194.994 54.254 192.865 53.7097 190.954 52.621C189.042 51.5081 187.53 49.9718 186.418 48.0121C185.329 46.0283 184.784 43.7904 184.784 41.2985C184.784 38.8066 185.329 36.5808 186.418 34.6211C187.53 32.6373 189.042 31.101 190.954 30.0123C192.865 28.8994 194.994 28.343 197.341 28.343C199.712 28.343 201.853 28.8994 203.764 30.0123C205.675 31.101 207.175 32.6373 208.264 34.6211C209.353 36.5808 209.897 38.8066 209.897 41.2985C209.897 43.7904 209.353 46.0283 208.264 48.0121C207.175 49.9718 205.675 51.5081 203.764 52.621C201.853 53.7097 199.712 54.254 197.341 54.254ZM197.341 52.0403C199.228 52.0403 200.921 51.6049 202.421 50.7339C203.921 49.8629 205.107 48.617 205.978 46.996C206.849 45.3509 207.284 43.4517 207.284 41.2985C207.284 39.1453 206.849 37.2582 205.978 35.6373C205.107 34.0163 203.921 32.7703 202.421 31.8994C200.921 31.0284 199.228 30.5929 197.341 30.5929C195.454 30.5929 193.76 31.0284 192.26 31.8994C190.76 32.7703 189.575 34.0163 188.704 35.6373C187.833 37.2582 187.397 39.1453 187.397 41.2985C187.397 43.4517 187.833 45.3509 188.704 46.996C189.575 48.617 190.76 49.8629 192.26 50.7339C193.76 51.6049 195.454 52.0403 197.341 52.0403ZM223.836 33.8228C226.207 33.8228 228.142 34.5607 229.642 36.0364C231.142 37.488 231.892 39.605 231.892 42.3872V54H229.388V42.6775C229.388 40.5243 228.844 38.8792 227.755 37.7421C226.69 36.605 225.227 36.0364 223.364 36.0364C221.453 36.0364 219.928 36.6413 218.791 37.8509C217.654 39.0606 217.086 40.8388 217.086 43.1856V54H214.545V34.1857H217.086V37.5606C217.715 36.351 218.622 35.4316 219.807 34.8026C220.993 34.1494 222.336 33.8228 223.836 33.8228Z" fill="#21DA8F"/>
<path d="M97.1248 35.9276C97.1248 38.105 96.4111 39.859 94.9837 41.1896C93.5563 42.5203 91.4152 43.1856 88.5604 43.1856H83.4435V54H80.9032V28.6333H88.5604C91.391 28.6333 93.52 29.2986 94.9474 30.6292C96.399 31.9599 97.1248 33.726 97.1248 35.9276ZM88.5604 41.0082C92.5281 41.0082 94.512 39.3146 94.512 35.9276C94.512 34.234 94.0402 32.9518 93.0966 32.0808C92.1531 31.2099 90.641 30.7744 88.5604 30.7744H83.4435V41.0082H88.5604ZM100.226 44.0565C100.226 42.0243 100.625 40.2461 101.423 38.7219C102.246 37.1735 103.371 35.9881 104.798 35.1655C106.25 34.3187 107.883 33.8953 109.698 33.8953C111.585 33.8953 113.206 34.3308 114.56 35.2018C115.939 36.0727 116.931 37.1856 117.536 38.5405V34.1857H120.077V54H117.536V49.6089C116.907 50.9637 115.903 52.0887 114.524 52.9839C113.169 53.8548 111.548 54.2903 109.661 54.2903C107.871 54.2903 106.25 53.8669 104.798 53.0202C103.371 52.1734 102.246 50.9758 101.423 49.4275C100.625 47.8791 100.226 46.0888 100.226 44.0565ZM117.536 44.0928C117.536 42.4961 117.21 41.0929 116.556 39.8832C115.903 38.6735 115.008 37.7421 113.871 37.0889C112.758 36.4356 111.524 36.109 110.169 36.109C108.766 36.109 107.508 36.4235 106.395 37.0526C105.282 37.6816 104.399 38.6009 103.746 39.8106C103.117 40.9961 102.803 42.4114 102.803 44.0565C102.803 45.6775 103.117 47.1049 103.746 48.3388C104.399 49.5484 105.282 50.4799 106.395 51.1331C107.508 51.7621 108.766 52.0766 110.169 52.0766C111.524 52.0766 112.758 51.75 113.871 51.0968C115.008 50.4436 115.903 49.5121 116.556 48.3025C117.21 47.0928 117.536 45.6896 117.536 44.0928ZM132.698 54.2903C130.424 54.2903 128.561 53.7702 127.11 52.7298C125.682 51.6653 124.884 50.2258 124.715 48.4113H127.327C127.448 49.5242 127.969 50.4315 128.888 51.1331C129.831 51.8105 131.09 52.1492 132.662 52.1492C134.041 52.1492 135.118 51.8226 135.892 51.1694C136.69 50.5162 137.089 49.7057 137.089 48.7379C137.089 48.0605 136.872 47.5041 136.436 47.0686C136.001 46.6331 135.444 46.2944 134.767 46.0525C134.114 45.7864 133.219 45.5081 132.081 45.2178C130.606 44.8307 129.408 44.4436 128.489 44.0565C127.569 43.6694 126.783 43.1009 126.13 42.3509C125.501 41.5767 125.186 40.5485 125.186 39.2663C125.186 38.2985 125.477 37.4034 126.057 36.5808C126.638 35.7582 127.461 35.105 128.525 34.6211C129.59 34.1373 130.799 33.8953 132.154 33.8953C134.283 33.8953 136.001 34.4397 137.307 35.5284C138.614 36.5929 139.315 38.0687 139.412 39.9558H136.872C136.799 38.7945 136.339 37.863 135.493 37.1614C134.67 36.4356 133.533 36.0727 132.081 36.0727C130.799 36.0727 129.759 36.3752 128.961 36.98C128.162 37.5848 127.763 38.3348 127.763 39.23C127.763 40.0042 127.993 40.6453 128.452 41.1533C128.936 41.6372 129.529 42.0243 130.231 42.3146C130.932 42.5807 131.876 42.8832 133.061 43.2219C134.489 43.609 135.626 43.984 136.473 44.3469C137.319 44.7098 138.045 45.242 138.65 45.9436C139.255 46.6452 139.569 47.5767 139.593 48.7379C139.593 49.8025 139.303 50.7581 138.723 51.6049C138.142 52.4274 137.331 53.0807 136.291 53.5645C135.251 54.0484 134.053 54.2903 132.698 54.2903ZM151.198 54.2903C148.924 54.2903 147.061 53.7702 145.609 52.7298C144.182 51.6653 143.383 50.2258 143.214 48.4113H145.827C145.948 49.5242 146.468 50.4315 147.387 51.1331C148.331 51.8105 149.589 52.1492 151.161 52.1492C152.541 52.1492 153.617 51.8226 154.391 51.1694C155.19 50.5162 155.589 49.7057 155.589 48.7379C155.589 48.0605 155.371 47.5041 154.936 47.0686C154.5 46.6331 153.944 46.2944 153.266 46.0525C152.613 45.7864 151.718 45.5081 150.581 45.2178C149.105 44.8307 147.907 44.4436 146.988 44.0565C146.069 43.6694 145.283 43.1009 144.629 42.3509C144 41.5767 143.686 40.5485 143.686 39.2663C143.686 38.2985 143.976 37.4034 144.557 36.5808C145.137 35.7582 145.96 35.105 147.024 34.6211C148.089 34.1373 149.299 33.8953 150.653 33.8953C152.782 33.8953 154.5 34.4397 155.807 35.5284C157.113 36.5929 157.815 38.0687 157.911 39.9558H155.371C155.299 38.7945 154.839 37.863 153.992 37.1614C153.17 36.4356 152.032 36.0727 150.581 36.0727C149.299 36.0727 148.258 36.3752 147.46 36.98C146.662 37.5848 146.262 38.3348 146.262 39.23C146.262 40.0042 146.492 40.6453 146.952 41.1533C147.436 41.6372 148.028 42.0243 148.73 42.3146C149.432 42.5807 150.375 42.8832 151.561 43.2219C152.988 43.609 154.125 43.984 154.972 44.3469C155.819 44.7098 156.545 45.242 157.149 45.9436C157.754 46.6452 158.069 47.5767 158.093 48.7379C158.093 49.8025 157.803 50.7581 157.222 51.6049C156.641 52.4274 155.831 53.0807 154.79 53.5645C153.75 54.0484 152.553 54.2903 151.198 54.2903ZM197.341 54.254C194.994 54.254 192.865 53.7097 190.954 52.621C189.042 51.5081 187.53 49.9718 186.418 48.0121C185.329 46.0283 184.784 43.7904 184.784 41.2985C184.784 38.8066 185.329 36.5808 186.418 34.6211C187.53 32.6373 189.042 31.101 190.954 30.0123C192.865 28.8994 194.994 28.343 197.341 28.343C199.712 28.343 201.853 28.8994 203.764 30.0123C205.675 31.101 207.175 32.6373 208.264 34.6211C209.353 36.5808 209.897 38.8066 209.897 41.2985C209.897 43.7904 209.353 46.0283 208.264 48.0121C207.175 49.9718 205.675 51.5081 203.764 52.621C201.853 53.7097 199.712 54.254 197.341 54.254ZM197.341 52.0403C199.228 52.0403 200.921 51.6049 202.421 50.7339C203.921 49.8629 205.107 48.617 205.978 46.996C206.849 45.3509 207.284 43.4517 207.284 41.2985C207.284 39.1453 206.849 37.2582 205.978 35.6373C205.107 34.0163 203.921 32.7703 202.421 31.8994C200.921 31.0284 199.228 30.5929 197.341 30.5929C195.454 30.5929 193.76 31.0284 192.26 31.8994C190.76 32.7703 189.575 34.0163 188.704 35.6373C187.833 37.2582 187.397 39.1453 187.397 41.2985C187.397 43.4517 187.833 45.3509 188.704 46.996C189.575 48.617 190.76 49.8629 192.26 50.7339C193.76 51.6049 195.454 52.0403 197.341 52.0403ZM223.836 33.8228C226.207 33.8228 228.142 34.5607 229.642 36.0364C231.142 37.488 231.892 39.605 231.892 42.3872V54H229.388V42.6775C229.388 40.5243 228.844 38.8792 227.755 37.7421C226.69 36.605 225.227 36.0364 223.364 36.0364C221.453 36.0364 219.928 36.6413 218.791 37.8509C217.654 39.0606 217.086 40.8388 217.086 43.1856V54H214.545V34.1857H217.086V37.5606C217.715 36.351 218.622 35.4316 219.807 34.8026C220.993 34.1494 222.336 33.8228 223.836 33.8228Z" fill="#153759"/>
<path d="M169.407 28.7784L164.943 54H160.806L165.27 28.7784H169.407ZM176.181 48.4476C176.133 48.7863 176.109 49.0041 176.109 49.1008C176.109 49.6089 176.266 49.9839 176.58 50.2258C176.895 50.4436 177.415 50.5524 178.141 50.5524H180.681L180.064 54H176.798C175.201 54 173.98 53.6855 173.133 53.0565C172.286 52.4032 171.863 51.375 171.863 49.9718C171.863 49.4396 171.911 48.9315 172.008 48.4476L173.967 37.3792H171.609L172.189 34.0042H174.584L175.455 29.0325H179.629L178.758 34.0042H183.584L183.004 37.3792H178.141L176.181 48.4476Z" fill="#21DA8F"/>
<path d="M169.407 28.7784L164.943 54H160.806L165.27 28.7784H169.407ZM176.181 48.4476C176.133 48.7863 176.109 49.0041 176.109 49.1008C176.109 49.6089 176.266 49.9839 176.58 50.2258C176.895 50.4436 177.415 50.5524 178.141 50.5524H180.681L180.064 54H176.798C175.201 54 173.98 53.6855 173.133 53.0565C172.286 52.4032 171.863 51.375 171.863 49.9718C171.863 49.4396 171.911 48.9315 172.008 48.4476L173.967 37.3792H171.609L172.189 34.0042H174.584L175.455 29.0325H179.629L178.758 34.0042H183.584L183.004 37.3792H178.141L176.181 48.4476Z" fill="#153759"/>
<path d="M169.407 28.7784L164.943 54H160.806L165.27 28.7784H169.407ZM176.181 48.4476C176.133 48.7863 176.109 49.0041 176.109 49.1008C176.109 49.6089 176.266 49.9839 176.58 50.2258C176.895 50.4436 177.415 50.5524 178.141 50.5524H180.681L180.064 54H176.798C175.201 54 173.98 53.6855 173.133 53.0565C172.286 52.4032 171.863 51.375 171.863 49.9718C171.863 49.4396 171.911 48.9315 172.008 48.4476L173.967 37.3792H171.609L172.189 34.0042H174.584L175.455 29.0325H179.629L178.758 34.0042H183.584L183.004 37.3792H178.141L176.181 48.4476Z" fill="#21DA8F"/>
<path d="M83.8271 83L82.7334 79.9785H78.5908L77.4971 83H76.5059L80.1973 73.1357H81.127L84.8115 83H83.8271ZM80.6143 74.3594L78.8711 79.1719H82.4531L80.7031 74.3594H80.6143ZM85.9945 77.5859C85.9945 76.998 86.2497 76.5059 86.7602 76.1094C87.2751 75.7129 87.9063 75.5146 88.6537 75.5146C89.3965 75.5146 90.0118 75.6878 90.4994 76.0342C90.987 76.376 91.2719 76.8385 91.3539 77.4219H90.4721C90.39 77.0755 90.185 76.7998 89.8568 76.5947C89.5333 76.3851 89.1299 76.2803 88.6469 76.2803C88.1592 76.2803 87.7445 76.401 87.4027 76.6426C87.0655 76.8841 86.8969 77.1872 86.8969 77.5518C86.8969 77.8525 87.0154 78.0964 87.2523 78.2832C87.4893 78.4701 87.8585 78.6227 88.3598 78.7412L89.3715 78.9805C90.0961 79.1536 90.6293 79.3975 90.9711 79.7119C91.3129 80.0218 91.4838 80.4388 91.4838 80.9629C91.4838 81.5918 91.2126 82.109 90.6703 82.5146C90.128 82.9202 89.4512 83.123 88.64 83.123C87.838 83.123 87.1771 82.9476 86.6576 82.5967C86.1381 82.2412 85.8419 81.7604 85.7689 81.1543H86.6986C86.7989 81.528 87.0199 81.8219 87.3617 82.0361C87.7035 82.2503 88.1387 82.3574 88.6674 82.3574C89.2097 82.3574 89.6609 82.2321 90.0209 81.9814C90.3809 81.7308 90.5609 81.4141 90.5609 81.0312C90.5609 80.7122 90.4447 80.4548 90.2123 80.2588C89.9799 80.0583 89.6153 79.8988 89.1186 79.7803L88.0043 79.5137C87.3116 79.3451 86.8035 79.1104 86.4799 78.8096C86.1563 78.5042 85.9945 78.0964 85.9945 77.5859ZM92.9402 77.5859C92.9402 76.998 93.1954 76.5059 93.7059 76.1094C94.2208 75.7129 94.852 75.5146 95.5994 75.5146C96.3423 75.5146 96.9575 75.6878 97.4451 76.0342C97.9327 76.376 98.2176 76.8385 98.2996 77.4219H97.4178C97.3357 77.0755 97.1307 76.7998 96.8025 76.5947C96.479 76.3851 96.0757 76.2803 95.5926 76.2803C95.1049 76.2803 94.6902 76.401 94.3484 76.6426C94.0112 76.8841 93.8426 77.1872 93.8426 77.5518C93.8426 77.8525 93.9611 78.0964 94.198 78.2832C94.435 78.4701 94.8042 78.6227 95.3055 78.7412L96.3172 78.9805C97.0418 79.1536 97.575 79.3975 97.9168 79.7119C98.2586 80.0218 98.4295 80.4388 98.4295 80.9629C98.4295 81.5918 98.1583 82.109 97.616 82.5146C97.0737 82.9202 96.3969 83.123 95.5857 83.123C94.7837 83.123 94.1229 82.9476 93.6033 82.5967C93.0838 82.2412 92.7876 81.7604 92.7146 81.1543H93.6443C93.7446 81.528 93.9656 81.8219 94.3074 82.0361C94.6492 82.2503 95.0844 82.3574 95.6131 82.3574C96.1554 82.3574 96.6066 82.2321 96.9666 81.9814C97.3266 81.7308 97.5066 81.4141 97.5066 81.0312C97.5066 80.7122 97.3904 80.4548 97.158 80.2588C96.9256 80.0583 96.561 79.8988 96.0643 79.7803L94.95 79.5137C94.2573 79.3451 93.7492 79.1104 93.4256 78.8096C93.102 78.5042 92.9402 78.0964 92.9402 77.5859ZM103.106 76.3076C102.436 76.3076 101.887 76.5378 101.458 76.998C101.03 77.4538 100.795 78.0599 100.754 78.8164H105.341C105.332 78.0553 105.122 77.4469 104.712 76.9912C104.307 76.5355 103.771 76.3076 103.106 76.3076ZM105.252 81.1816H106.161C105.979 81.7832 105.619 82.2572 105.081 82.6035C104.543 82.9499 103.89 83.123 103.119 83.123C102.108 83.123 101.306 82.7812 100.713 82.0977C100.121 81.4095 99.8244 80.4844 99.8244 79.3223C99.8244 78.1647 100.121 77.2419 100.713 76.5537C101.31 75.861 102.11 75.5146 103.112 75.5146C104.092 75.5146 104.865 75.8405 105.43 76.4922C105.995 77.1439 106.278 78.0326 106.278 79.1582V79.5547H100.747V79.5957C100.77 80.4297 100.996 81.0928 101.424 81.585C101.857 82.0771 102.429 82.3232 103.14 82.3232C103.659 82.3232 104.101 82.2253 104.466 82.0293C104.831 81.8288 105.093 81.5462 105.252 81.1816ZM108.534 73.7236H109.429V75.6377H111.131V76.3965H109.429V80.9629C109.429 81.4141 109.52 81.7422 109.703 81.9473C109.885 82.1478 110.184 82.248 110.598 82.248C110.803 82.248 110.981 82.2412 111.131 82.2275V82.9932C110.949 83.0251 110.74 83.041 110.503 83.041C109.796 83.041 109.29 82.8975 108.985 82.6104C108.684 82.3187 108.534 81.8379 108.534 81.168V76.3965H107.331V75.6377H108.534V73.7236ZM112.533 77.5859C112.533 76.998 112.788 76.5059 113.299 76.1094C113.814 75.7129 114.445 75.5146 115.192 75.5146C115.935 75.5146 116.55 75.6878 117.038 76.0342C117.526 76.376 117.811 76.8385 117.893 77.4219H117.011C116.929 77.0755 116.724 76.7998 116.396 76.5947C116.072 76.3851 115.669 76.2803 115.186 76.2803C114.698 76.2803 114.283 76.401 113.941 76.6426C113.604 76.8841 113.436 77.1872 113.436 77.5518C113.436 77.8525 113.554 78.0964 113.791 78.2832C114.028 78.4701 114.397 78.6227 114.898 78.7412L115.91 78.9805C116.635 79.1536 117.168 79.3975 117.51 79.7119C117.852 80.0218 118.022 80.4388 118.022 80.9629C118.022 81.5918 117.751 82.109 117.209 82.5146C116.667 82.9202 115.99 83.123 115.179 83.123C114.377 83.123 113.716 82.9476 113.196 82.5967C112.677 82.2412 112.381 81.7604 112.308 81.1543H113.237C113.338 81.528 113.559 81.8219 113.9 82.0361C114.242 82.2503 114.677 82.3574 115.206 82.3574C115.748 82.3574 116.2 82.2321 116.56 81.9814C116.92 81.7308 117.1 81.4141 117.1 81.0312C117.1 80.7122 116.983 80.4548 116.751 80.2588C116.519 80.0583 116.154 79.8988 115.657 79.7803L114.543 79.5137C113.85 79.3451 113.342 79.1104 113.019 78.8096C112.695 78.5042 112.533 78.0964 112.533 77.5859ZM123.253 77.5859C123.253 76.998 123.508 76.5059 124.018 76.1094C124.533 75.7129 125.165 75.5146 125.912 75.5146C126.655 75.5146 127.27 75.6878 127.758 76.0342C128.245 76.376 128.53 76.8385 128.612 77.4219H127.73C127.648 77.0755 127.443 76.7998 127.115 76.5947C126.791 76.3851 126.388 76.2803 125.905 76.2803C125.417 76.2803 125.003 76.401 124.661 76.6426C124.324 76.8841 124.155 77.1872 124.155 77.5518C124.155 77.8525 124.274 78.0964 124.511 78.2832C124.748 78.4701 125.117 78.6227 125.618 78.7412L126.63 78.9805C127.354 79.1536 127.888 79.3975 128.229 79.7119C128.571 80.0218 128.742 80.4388 128.742 80.9629C128.742 81.5918 128.471 82.109 127.929 82.5146C127.386 82.9202 126.709 83.123 125.898 83.123C125.096 83.123 124.435 82.9476 123.916 82.5967C123.396 82.2412 123.1 81.7604 123.027 81.1543H123.957C124.057 81.528 124.278 81.8219 124.62 82.0361C124.962 82.2503 125.397 82.3574 125.926 82.3574C126.468 82.3574 126.919 82.2321 127.279 81.9814C127.639 81.7308 127.819 81.4141 127.819 81.0312C127.819 80.7122 127.703 80.4548 127.471 80.2588C127.238 80.0583 126.874 79.8988 126.377 79.7803L125.263 79.5137C124.57 79.3451 124.062 79.1104 123.738 78.8096C123.415 78.5042 123.253 78.0964 123.253 77.5859ZM130.574 83V72.7051H131.47V76.9639H131.552C131.752 76.5036 132.06 76.1481 132.475 75.8975C132.89 75.6423 133.389 75.5146 133.972 75.5146C134.765 75.5146 135.389 75.7539 135.845 76.2324C136.301 76.7064 136.529 77.3672 136.529 78.2148V83H135.633V78.4404C135.633 77.7477 135.469 77.2214 135.141 76.8613C134.817 76.5013 134.348 76.3213 133.733 76.3213C133.044 76.3213 132.495 76.5355 132.085 76.9639C131.675 77.3877 131.47 77.9414 131.47 78.625V83H130.574ZM140.829 82.3301C141.49 82.3301 142.041 82.1318 142.483 81.7354C142.93 81.3343 143.153 80.8421 143.153 80.2588V79.3975L140.972 79.5547C139.737 79.6413 139.12 80.1061 139.12 80.9492C139.12 81.3685 139.279 81.7035 139.598 81.9541C139.917 82.2048 140.327 82.3301 140.829 82.3301ZM140.678 83.123C139.949 83.123 139.352 82.9271 138.887 82.5352C138.427 82.1387 138.197 81.6146 138.197 80.9629C138.197 80.3249 138.425 79.8236 138.88 79.459C139.336 79.0898 139.992 78.8757 140.849 78.8164L143.153 78.666V77.9551C143.153 77.4264 142.996 77.0208 142.681 76.7383C142.371 76.4557 141.918 76.3145 141.321 76.3145C140.815 76.3145 140.389 76.417 140.043 76.6221C139.701 76.8226 139.487 77.1006 139.4 77.4561H138.491C138.577 76.8727 138.88 76.4033 139.4 76.0479C139.924 75.6924 140.574 75.5146 141.348 75.5146C142.21 75.5146 142.875 75.7288 143.344 76.1572C143.818 76.5811 144.055 77.1781 144.055 77.9482V83H143.194V81.7354H143.112C142.889 82.1729 142.563 82.5146 142.134 82.7607C141.706 83.0023 141.221 83.123 140.678 83.123ZM146.175 83V75.6377H147.029V76.8477H147.118C147.241 76.4466 147.492 76.1253 147.87 75.8838C148.248 75.6377 148.681 75.5146 149.169 75.5146C149.461 75.5146 149.691 75.5352 149.859 75.5762V76.4717C149.654 76.4124 149.388 76.3828 149.06 76.3828C148.49 76.3828 148.016 76.5765 147.638 76.9639C147.259 77.3467 147.07 77.8275 147.07 78.4062V83H146.175ZM151.384 83V75.6377H152.28V83H151.384ZM152.3 73.8057C152.168 73.9333 152.011 73.9971 151.829 73.9971C151.646 73.9971 151.489 73.931 151.357 73.7988C151.229 73.6667 151.165 73.5094 151.165 73.3271C151.165 73.1449 151.229 72.9899 151.357 72.8623C151.489 72.7301 151.646 72.6641 151.829 72.6641C152.011 72.6641 152.168 72.7301 152.3 72.8623C152.432 72.9899 152.498 73.1449 152.498 73.3271C152.498 73.514 152.432 73.6735 152.3 73.8057ZM154.474 83V75.6377H155.329V76.9639H155.418C155.614 76.5036 155.915 76.1481 156.32 75.8975C156.726 75.6423 157.218 75.5146 157.797 75.5146C158.617 75.5146 159.25 75.7516 159.697 76.2256C160.148 76.695 160.374 77.3581 160.374 78.2148V83H159.478V78.4404C159.478 77.0277 158.838 76.3213 157.557 76.3213C156.906 76.3213 156.377 76.5332 155.971 76.957C155.57 77.3763 155.37 77.9323 155.37 78.625V83H154.474ZM167.778 79.2402C167.778 78.3607 167.559 77.6543 167.121 77.1211C166.688 76.5879 166.11 76.3213 165.385 76.3213C164.656 76.3213 164.079 76.5856 163.655 77.1143C163.236 77.6383 163.027 78.3424 163.027 79.2266C163.027 80.1061 163.236 80.8102 163.655 81.3389C164.079 81.863 164.656 82.125 165.385 82.125C166.119 82.125 166.7 81.863 167.128 81.3389C167.561 80.8148 167.778 80.1152 167.778 79.2402ZM165.46 85.7617C164.622 85.7617 163.936 85.5885 163.403 85.2422C162.869 84.9004 162.555 84.4401 162.459 83.8613H163.409C163.491 84.2031 163.715 84.4743 164.079 84.6748C164.444 84.8753 164.904 84.9756 165.46 84.9756C166.171 84.9756 166.732 84.8024 167.142 84.4561C167.557 84.1097 167.764 83.638 167.764 83.041V81.3867H167.675C167.456 81.8743 167.13 82.2526 166.697 82.5215C166.269 82.7904 165.772 82.9248 165.207 82.9248C164.264 82.9248 163.51 82.5876 162.945 81.9131C162.384 81.234 162.104 80.3385 162.104 79.2266C162.104 78.1146 162.386 77.2191 162.951 76.54C163.516 75.8564 164.268 75.5146 165.207 75.5146C165.768 75.5146 166.276 75.6582 166.732 75.9453C167.187 76.2324 167.515 76.6152 167.716 77.0938H167.798V75.6377H168.659V83.1094C168.659 83.9115 168.368 84.554 167.784 85.0371C167.201 85.5202 166.426 85.7617 165.46 85.7617ZM177.909 75.5146C178.843 75.5146 179.593 75.8633 180.158 76.5605C180.723 77.2533 181.006 78.1715 181.006 79.3154C181.006 80.4593 180.721 81.3799 180.151 82.0771C179.586 82.7744 178.839 83.123 177.909 83.123C177.34 83.123 176.834 82.9886 176.392 82.7197C175.954 82.4463 175.633 82.0726 175.428 81.5986H175.346V85.4404H174.45V75.6377H175.305V77.1416H175.387C175.615 76.6357 175.952 76.2393 176.398 75.9521C176.845 75.6605 177.349 75.5146 177.909 75.5146ZM177.711 82.3096C178.44 82.3096 179.017 82.0407 179.44 81.5029C179.869 80.9652 180.083 80.2383 180.083 79.3223C180.083 78.4017 179.869 77.6725 179.44 77.1348C179.017 76.5924 178.442 76.3213 177.718 76.3213C176.998 76.3213 176.417 76.5947 175.975 77.1416C175.537 77.6885 175.318 78.4131 175.318 79.3154C175.318 80.2178 175.537 80.9424 175.975 81.4893C176.412 82.0361 176.991 82.3096 177.711 82.3096ZM182.859 83V72.7051H183.754V83H182.859ZM188.191 82.3301C188.852 82.3301 189.403 82.1318 189.846 81.7354C190.292 81.3343 190.515 80.8421 190.515 80.2588V79.3975L188.335 79.5547C187.1 79.6413 186.482 80.1061 186.482 80.9492C186.482 81.3685 186.642 81.7035 186.961 81.9541C187.28 82.2048 187.69 82.3301 188.191 82.3301ZM188.041 83.123C187.312 83.123 186.715 82.9271 186.25 82.5352C185.79 82.1387 185.559 81.6146 185.559 80.9629C185.559 80.3249 185.787 79.8236 186.243 79.459C186.699 79.0898 187.355 78.8757 188.212 78.8164L190.515 78.666V77.9551C190.515 77.4264 190.358 77.0208 190.044 76.7383C189.734 76.4557 189.28 76.3145 188.683 76.3145C188.178 76.3145 187.751 76.417 187.405 76.6221C187.063 76.8226 186.849 77.1006 186.762 77.4561H185.853C185.94 76.8727 186.243 76.4033 186.762 76.0479C187.287 75.6924 187.936 75.5146 188.711 75.5146C189.572 75.5146 190.237 75.7288 190.707 76.1572C191.181 76.5811 191.418 77.1781 191.418 77.9482V83H190.556V81.7354H190.474C190.251 82.1729 189.925 82.5146 189.497 82.7607C189.068 83.0023 188.583 83.123 188.041 83.123ZM194.002 73.7236H194.898V75.6377H196.6V76.3965H194.898V80.9629C194.898 81.4141 194.989 81.7422 195.171 81.9473C195.353 82.1478 195.652 82.248 196.067 82.248C196.272 82.248 196.449 82.2412 196.6 82.2275V82.9932C196.418 83.0251 196.208 83.041 195.971 83.041C195.265 83.041 194.759 82.8975 194.453 82.6104C194.153 82.3187 194.002 81.8379 194.002 81.168V76.3965H192.799V75.6377H194.002V73.7236ZM198.87 83V76.3965H197.646V75.6377H198.87V74.8242C198.87 73.4707 199.546 72.7939 200.9 72.7939C201.105 72.7939 201.328 72.8167 201.57 72.8623V73.6211C201.401 73.5801 201.194 73.5596 200.948 73.5596C200.565 73.5596 200.271 73.6667 200.066 73.8809C199.865 74.0951 199.765 74.4163 199.765 74.8447V75.6377H201.502V76.3965H199.765V83H198.87ZM203.99 81.5166C204.419 82.0452 205.011 82.3096 205.768 82.3096C206.524 82.3096 207.117 82.0452 207.545 81.5166C207.973 80.9834 208.188 80.2497 208.188 79.3154C208.188 78.3812 207.973 77.6497 207.545 77.1211C207.117 76.5879 206.524 76.3213 205.768 76.3213C205.011 76.3213 204.419 76.5879 203.99 77.1211C203.562 77.6497 203.348 78.3812 203.348 79.3154C203.348 80.2497 203.562 80.9834 203.99 81.5166ZM208.215 82.1045C207.613 82.7835 206.798 83.123 205.768 83.123C204.738 83.123 203.922 82.7835 203.32 82.1045C202.723 81.4209 202.425 80.4912 202.425 79.3154C202.425 78.1396 202.723 77.2122 203.32 76.5332C203.922 75.8542 204.738 75.5146 205.768 75.5146C206.798 75.5146 207.613 75.8542 208.215 76.5332C208.816 77.2122 209.117 78.1396 209.117 79.3154C209.117 80.4912 208.816 81.4209 208.215 82.1045ZM210.902 83V75.6377H211.756V76.8477H211.845C211.968 76.4466 212.219 76.1253 212.597 75.8838C212.975 75.6377 213.408 75.5146 213.896 75.5146C214.188 75.5146 214.418 75.5352 214.586 75.5762V76.4717C214.381 76.4124 214.115 76.3828 213.787 76.3828C213.217 76.3828 212.743 76.5765 212.365 76.9639C211.986 77.3467 211.797 77.8275 211.797 78.4062V83H210.902ZM216.07 83V75.6377H216.925V76.9639H217.013C217.173 76.5127 217.44 76.1595 217.813 75.9043C218.192 75.6445 218.634 75.5146 219.139 75.5146C219.645 75.5146 220.078 75.6445 220.438 75.9043C220.803 76.1595 221.065 76.5127 221.224 76.9639H221.313C221.505 76.5173 221.803 76.1641 222.209 75.9043C222.619 75.6445 223.086 75.5146 223.61 75.5146C224.348 75.5146 224.92 75.7288 225.326 76.1572C225.736 76.5811 225.941 77.1826 225.941 77.9619V83H225.046V78.167C225.046 77.5654 224.9 77.1074 224.608 76.793C224.321 76.4785 223.9 76.3213 223.344 76.3213C222.783 76.3213 222.327 76.5127 221.976 76.8955C221.625 77.2738 221.45 77.7523 221.45 78.3311V83H220.554V78.0713C220.554 77.5426 220.4 77.1188 220.09 76.7998C219.78 76.4808 219.37 76.3213 218.859 76.3213C218.326 76.3213 217.877 76.5309 217.512 76.9502C217.148 77.3695 216.966 77.8799 216.966 78.4814V83H216.07Z" fill="#263638"/>
</svg>
